<svg xmlns="http://www.w3.org/2000/svg" xmlns:xlink="http://www.w3.org/1999/xlink" xmlns:lucid="lucid" width="1590" height="1288"><g transform="translate(0 0)" lucid:page-tab-id="0_0"><path d="M0 0h1590v1288H0z" fill="#fff"/><path d="M384.98 72c0-6.63 5.37-12 12-12h766.04c6.63 0 12 5.37 12 12v18c0 6.63-5.37 12-12 12H396.98c-6.63 0-12-5.37-12-12z" stroke="#000" stroke-opacity="0" stroke-width="2" fill="#fff" fill-opacity="0"/><use xlink:href="#a" transform="matrix(1,0,0,1,389.9782225441377,65) translate(90.38888888888886 23.333333333333336)"/><use xlink:href="#b" transform="matrix(1,0,0,1,389.9782225441377,65) translate(189.42592592592592 23.333333333333336)"/><use xlink:href="#c" transform="matrix(1,0,0,1,389.9782225441377,65) translate(253.05555555555554 23.333333333333336)"/><use xlink:href="#d" transform="matrix(1,0,0,1,389.9782225441377,65) translate(319.64814814814815 23.333333333333336)"/><use xlink:href="#e" transform="matrix(1,0,0,1,389.9782225441377,65) translate(335.8703703703704 23.333333333333336)"/><use xlink:href="#f" transform="matrix(1,0,0,1,389.9782225441377,65) translate(417.1296296296296 23.333333333333336)"/><use xlink:href="#g" transform="matrix(1,0,0,1,389.9782225441377,65) translate(584.0925925925926 23.333333333333336)"/><path d="M384.98 113c0-6.63 5.37-12 12-12h766.04c6.63 0 12 5.37 12 12v14c0 6.63-5.37 12-12 12H396.98c-6.63 0-12-5.37-12-12z" stroke="#000" stroke-opacity="0" stroke-width="2" fill="#fff" fill-opacity="0"/><use xlink:href="#h" transform="matrix(1,0,0,1,389.97822254413774,106.00000000000004) translate(283.08024691358025 17.881944444444446)"/><use xlink:href="#i" transform="matrix(1,0,0,1,389.97822254413774,106.00000000000004) translate(321.96913580246917 17.881944444444446)"/><use xlink:href="#j" transform="matrix(1,0,0,1,389.97822254413774,106.00000000000004) translate(365.17901234567904 17.881944444444446)"/><use xlink:href="#k" transform="matrix(1,0,0,1,389.97822254413774,106.00000000000004) translate(377.8395061728395 17.881944444444446)"/><use xlink:href="#l" transform="matrix(1,0,0,1,389.97822254413774,106.00000000000004) translate(437.4259259259259 17.881944444444446)"/><use xlink:href="#m" transform="matrix(1,0,0,1,389.97822254413774,106.00000000000004) translate(463.35185185185185 17.881944444444446)"/><path d="M442.6 97.02H1119M442.62 97.02h-1.03M1118.98 97.02h1.03" stroke="#b2b2b2" stroke-width="2" fill="none"/><path d="M60 165c0-2.76 2.24-5 5-5h310c2.76 0 5 2.24 5 5v94c0 2.76-2.24 5-5 5H65c-2.76 0-5-2.24-5-5z" fill="#fff"/><path d="M60 160h320v40H60z" fill="#ccc"/><path d="M60 165c0-2.76 2.24-5 5-5h310c2.76 0 5 2.24 5 5v94c0 2.76-2.24 5-5 5H65c-2.76 0-5-2.24-5-5zM60 200h320M220 200v64" stroke="#666" fill="none"/><use xlink:href="#n" transform="matrix(1,0,0,1,70,160) translate(0 23.6)"/><use xlink:href="#o" transform="matrix(1,0,0,1,65,202.5) translate(0 17.1)"/><use xlink:href="#p" transform="matrix(1,0,0,1,225,202.5) translate(0 17.1)"/><use xlink:href="#q" transform="matrix(1,0,0,1,65,234.5) translate(0 17.1)"/><use xlink:href="#r" transform="matrix(1,0,0,1,225,234.5) translate(0 17.1)"/><path d="M60 405.96c0-2.76 2.24-5 5-5h310c2.76 0 5 2.24 5 5v94c0 2.77-2.24 5-5 5H65c-2.76 0-5-2.23-5-5z" fill="#fff"/><path d="M60 400.96h320v40H60z" fill="#ccc"/><path d="M60 405.96c0-2.76 2.24-5 5-5h310c2.76 0 5 2.24 5 5v94c0 2.77-2.24 5-5 5H65c-2.76 0-5-2.23-5-5zM60 440.96h320M220 440.96v64" stroke="#000" fill="none"/><use xlink:href="#s" transform="matrix(1,0,0,1,70,400.9646313242847) translate(0 23.6)"/><use xlink:href="#t" transform="matrix(1,0,0,1,65,443.4646313242847) translate(0 17.1)"/><use xlink:href="#u" transform="matrix(1,0,0,1,225,443.4646313242847) translate(0 17.1)"/><use xlink:href="#v" transform="matrix(1,0,0,1,65,475.4646313242847) translate(0 17.1)"/><use xlink:href="#w" transform="matrix(1,0,0,1,225,475.4646313242847) translate(0 17.1)"/><path d="M60 646.93c0-2.76 2.24-5 5-5h310c2.76 0 5 2.24 5 5v94c0 2.76-2.24 5-5 5H65c-2.76 0-5-2.24-5-5z" fill="#fff"/><path d="M60 641.93h320v40H60z" fill="#ccc"/><path d="M60 646.93c0-2.76 2.24-5 5-5h310c2.76 0 5 2.24 5 5v94c0 2.76-2.24 5-5 5H65c-2.76 0-5-2.24-5-5zM60 681.93h320M220 681.93v64" stroke="#000" fill="none"/><use xlink:href="#x" transform="matrix(1,0,0,1,70,641.9292626485694) translate(0 23.6)"/><use xlink:href="#t" transform="matrix(1,0,0,1,65,684.4292626485694) translate(0 17.1)"/><use xlink:href="#u" transform="matrix(1,0,0,1,225,684.4292626485694) translate(0 17.1)"/><use xlink:href="#v" transform="matrix(1,0,0,1,65,716.4292626485694) translate(0 17.1)"/><use xlink:href="#w" transform="matrix(1,0,0,1,225,716.4292626485694) translate(0 17.1)"/><path d="M620 165.96c0-2.76 2.24-5 5-5h310c2.76 0 5 2.24 5 5v371c0 2.77-2.24 5-5 5H625c-2.76 0-5-2.23-5-5z" fill="#fff"/><path d="M620 160.96h320v40H620z" fill="#ccc"/><path d="M620 165.96c0-2.76 2.24-5 5-5h310c2.76 0 5 2.24 5 5v371c0 2.77-2.24 5-5 5H625c-2.76 0-5-2.23-5-5zM620 200.96h320M780 200.96v341" stroke="#000" fill="none"/><use xlink:href="#y" transform="matrix(1,0,0,1,630,160.9646313242847) translate(0 23.6)"/><use xlink:href="#t" transform="matrix(1,0,0,1,625,203.4646313242847) translate(0 17.1)"/><use xlink:href="#u" transform="matrix(1,0,0,1,785,203.4646313242847) translate(0 17.1)"/><use xlink:href="#z" transform="matrix(1,0,0,1,625,235.4646313242847) translate(0 17.1)"/><use xlink:href="#u" transform="matrix(1,0,0,1,785,235.4646313242847) translate(0 17.1)"/><use xlink:href="#A" transform="matrix(1,0,0,1,625,267.4646313242847) translate(0 17.1)"/><use xlink:href="#u" transform="matrix(1,0,0,1,785,267.4646313242847) translate(0 17.1)"/><use xlink:href="#B" transform="matrix(1,0,0,1,625,299.4646313242847) translate(0 17.1)"/><use xlink:href="#u" transform="matrix(1,0,0,1,785,299.4646313242847) translate(0 17.1)"/><use xlink:href="#v" transform="matrix(1,0,0,1,625,331.4646313242847) translate(0 17.1)"/><use xlink:href="#w" transform="matrix(1,0,0,1,785,331.4646313242847) translate(0 17.1)"/><use xlink:href="#C" transform="matrix(1,0,0,1,625,363.4646313242847) translate(0 17.1)"/><use xlink:href="#D" transform="matrix(1,0,0,1,785,363.4646313242847) translate(0 17.1)"/><use xlink:href="#E" transform="matrix(1,0,0,1,625,395.4646313242847) translate(0 17.1)"/><use xlink:href="#F" transform="matrix(1,0,0,1,785,395.4646313242847) translate(0 17.1)"/><use xlink:href="#G" transform="matrix(1,0,0,1,625,427.4646313242847) translate(0 17.1)"/><use xlink:href="#H" transform="matrix(1,0,0,1,785,427.4646313242847) translate(0 17.1)"/><use xlink:href="#I" transform="matrix(1,0,0,1,625,459.4646313242847) translate(0 17.1)"/><use xlink:href="#J" transform="matrix(1,0,0,1,785,459.4646313242847) translate(0 17.1)"/><use xlink:href="#K" transform="matrix(1,0,0,1,625,491.4646313242847) translate(0 27.6)"/><use xlink:href="#L" transform="matrix(1,0,0,1,785,491.4646313242847) translate(0 16.799999999999997)"/><use xlink:href="#M" transform="matrix(1,0,0,1,785,491.4646313242847) translate(73.95 16.799999999999997)"/><use xlink:href="#N" transform="matrix(1,0,0,1,785,491.4646313242847) translate(103.95 16.799999999999997)"/><use xlink:href="#O" transform="matrix(1,0,0,1,785,491.4646313242847) translate(0 38.4)"/><use xlink:href="#P" transform="matrix(1,0,0,1,785,491.4646313242847) translate(58.95 38.4)"/><path d="M620 642.96c0-2.76 2.24-5 5-5h310c2.76 0 5 2.24 5 5v126c0 2.77-2.24 5-5 5H625c-2.76 0-5-2.23-5-5z" fill="#fff"/><path d="M620 637.96h320v40H620z" fill="#ccc"/><path d="M620 642.96c0-2.76 2.24-5 5-5h310c2.76 0 5 2.24 5 5v126c0 2.77-2.24 5-5 5H625c-2.76 0-5-2.23-5-5zM620 677.96h320M780 677.96v96" stroke="#000" fill="none"/><use xlink:href="#Q" transform="matrix(1,0,0,1,630,637.9646313242847) translate(0 23.6)"/><use xlink:href="#t" transform="matrix(1,0,0,1,625,680.4646313242847) translate(0 17.1)"/><use xlink:href="#u" transform="matrix(1,0,0,1,785,680.4646313242847) translate(0 17.1)"/><use xlink:href="#R" transform="matrix(1,0,0,1,625,712.4646313242847) translate(0 17.1)"/><use xlink:href="#u" transform="matrix(1,0,0,1,785,712.4646313242847) translate(0 17.1)"/><use xlink:href="#S" transform="matrix(1,0,0,1,625,744.4646313242847) translate(0 17.1)"/><use xlink:href="#u" transform="matrix(1,0,0,1,785,744.4646313242847) translate(0 17.1)"/><path d="M1180 725c0-2.76 2.24-5 5-5h310c2.76 0 5 2.24 5 5v179c0 2.76-2.24 5-5 5h-310c-2.76 0-5-2.24-5-5z" fill="#fff"/><path d="M1180 720h320v40h-320z" fill="#ccc"/><path d="M1180 725c0-2.76 2.24-5 5-5h310c2.76 0 5 2.24 5 5v179c0 2.76-2.24 5-5 5h-310c-2.76 0-5-2.24-5-5zM1180 760h320M1340 760v149" stroke="#000" fill="none"/><use xlink:href="#T" transform="matrix(1,0,0,1,1190,720) translate(0 23.6)"/><use xlink:href="#t" transform="matrix(1,0,0,1,1185,762.5) translate(0 17.1)"/><use xlink:href="#u" transform="matrix(1,0,0,1,1345,762.5) translate(0 17.1)"/><use xlink:href="#U" transform="matrix(1,0,0,1,1185,794.5) translate(0 17.1)"/><use xlink:href="#w" transform="matrix(1,0,0,1,1345,794.5) translate(0 17.1)"/><use xlink:href="#V" transform="matrix(1,0,0,1,1185,826.5) translate(0 17.1)"/><use xlink:href="#w" transform="matrix(1,0,0,1,1345,826.5) translate(0 17.1)"/><use xlink:href="#W" transform="matrix(1,0,0,1,1185,858.5) translate(0 27.6)"/><use xlink:href="#L" transform="matrix(1,0,0,1,1345,858.5) translate(0 16.799999999999997)"/><use xlink:href="#M" transform="matrix(1,0,0,1,1345,858.5) translate(73.95 16.799999999999997)"/><use xlink:href="#N" transform="matrix(1,0,0,1,1345,858.5) translate(103.95 16.799999999999997)"/><use xlink:href="#O" transform="matrix(1,0,0,1,1345,858.5) translate(0 38.4)"/><use xlink:href="#P" transform="matrix(1,0,0,1,1345,858.5) translate(58.95 38.4)"/><path d="M1180 445c0-2.76 2.24-5 5-5h310c2.76 0 5 2.24 5 5v126c0 2.76-2.24 5-5 5h-310c-2.76 0-5-2.24-5-5z" fill="#fff"/><path d="M1180 440h320v40h-320z" fill="#ccc"/><path d="M1180 445c0-2.76 2.24-5 5-5h310c2.76 0 5 2.24 5 5v126c0 2.76-2.24 5-5 5h-310c-2.76 0-5-2.24-5-5zM1180 480h320M1340 480v96" stroke="#000" fill="none"/><use xlink:href="#X" transform="matrix(1,0,0,1,1190,440) translate(0 23.6)"/><use xlink:href="#t" transform="matrix(1,0,0,1,1185,482.5) translate(0 17.1)"/><use xlink:href="#u" transform="matrix(1,0,0,1,1345,482.5) translate(0 17.1)"/><use xlink:href="#z" transform="matrix(1,0,0,1,1185,514.5) translate(0 17.1)"/><use xlink:href="#u" transform="matrix(1,0,0,1,1345,514.5) translate(0 17.1)"/><use xlink:href="#Y" transform="matrix(1,0,0,1,1185,546.5) translate(0 17.1)"/><use xlink:href="#H" transform="matrix(1,0,0,1,1345,546.5) translate(0 17.1)"/><path d="M1180 165c0-2.76 2.24-5 5-5h310c2.76 0 5 2.24 5 5v126c0 2.76-2.24 5-5 5h-310c-2.76 0-5-2.24-5-5z" fill="#fff"/><path d="M1180 160h320v40h-320z" fill="#ccc"/><path d="M1180 165c0-2.76 2.24-5 5-5h310c2.76 0 5 2.24 5 5v126c0 2.76-2.24 5-5 5h-310c-2.76 0-5-2.24-5-5zM1180 200h320M1340 200v96" stroke="#000" fill="none"/><use xlink:href="#Z" transform="matrix(1,0,0,1,1190,160) translate(0 23.6)"/><use xlink:href="#t" transform="matrix(1,0,0,1,1185,202.5) translate(0 17.1)"/><use xlink:href="#u" transform="matrix(1,0,0,1,1345,202.5) translate(0 17.1)"/><use xlink:href="#R" transform="matrix(1,0,0,1,1185,234.5) translate(0 17.1)"/><use xlink:href="#u" transform="matrix(1,0,0,1,1345,234.5) translate(0 17.1)"/><use xlink:href="#aa" transform="matrix(1,0,0,1,1185,266.5) translate(0 17.1)"/><use xlink:href="#u" transform="matrix(1,0,0,1,1345,266.5) translate(0 17.1)"/><path d="M620 965c0-2.76 2.24-5 5-5h310c2.76 0 5 2.24 5 5v254c0 2.76-2.24 5-5 5H625c-2.76 0-5-2.24-5-5z" fill="#fff"/><path d="M620 960h320v40H620z" fill="#ccc"/><path d="M620 965c0-2.76 2.24-5 5-5h310c2.76 0 5 2.24 5 5v254c0 2.76-2.24 5-5 5H625c-2.76 0-5-2.24-5-5zM620 1000h320M780 1000v224" stroke="#000" fill="none"/><use xlink:href="#ab" transform="matrix(1,0,0,1,630,960) translate(0 23.6)"/><use xlink:href="#t" transform="matrix(1,0,0,1,625,1002.5) translate(0 17.1)"/><use xlink:href="#u" transform="matrix(1,0,0,1,785,1002.5) translate(0 17.1)"/><use xlink:href="#z" transform="matrix(1,0,0,1,625,1034.5) translate(0 17.1)"/><use xlink:href="#u" transform="matrix(1,0,0,1,785,1034.5) translate(0 17.1)"/><use xlink:href="#ac" transform="matrix(1,0,0,1,625,1066.5) translate(0 17.1)"/><use xlink:href="#w" transform="matrix(1,0,0,1,785,1066.5) translate(0 17.1)"/><use xlink:href="#ad" transform="matrix(1,0,0,1,625,1098.5) translate(0 17.1)"/><use xlink:href="#w" transform="matrix(1,0,0,1,785,1098.5) translate(0 17.1)"/><use xlink:href="#ae" transform="matrix(1,0,0,1,625,1130.5) translate(0 17.1)"/><use xlink:href="#F" transform="matrix(1,0,0,1,785,1130.5) translate(0 17.1)"/><use xlink:href="#af" transform="matrix(1,0,0,1,625,1162.5) translate(0 17.1)"/><use xlink:href="#w" transform="matrix(1,0,0,1,785,1162.5) translate(0 17.1)"/><use xlink:href="#ag" transform="matrix(1,0,0,1,625,1194.5) translate(0 17.1)"/><use xlink:href="#w" transform="matrix(1,0,0,1,785,1194.5) translate(0 17.1)"/><path d="M1180 965c0-2.76 2.24-5 5-5h310c2.76 0 5 2.24 5 5v190c0 2.76-2.24 5-5 5h-310c-2.76 0-5-2.24-5-5z" fill="#fff"/><path d="M1180 960h320v40h-320z" fill="#ccc"/><path d="M1180 965c0-2.76 2.24-5 5-5h310c2.76 0 5 2.24 5 5v190c0 2.76-2.24 5-5 5h-310c-2.76 0-5-2.24-5-5zM1180 1000h320M1340 1000v160" stroke="#000" fill="none"/><use xlink:href="#ah" transform="matrix(1,0,0,1,1190,960) translate(0 23.6)"/><use xlink:href="#t" transform="matrix(1,0,0,1,1185,1002.5) translate(0 17.1)"/><use xlink:href="#u" transform="matrix(1,0,0,1,1345,1002.5) translate(0 17.1)"/><use xlink:href="#z" transform="matrix(1,0,0,1,1185,1034.5) translate(0 17.1)"/><use xlink:href="#u" transform="matrix(1,0,0,1,1345,1034.5) translate(0 17.1)"/><use xlink:href="#ai" transform="matrix(1,0,0,1,1185,1066.5) translate(0 17.1)"/><use xlink:href="#w" transform="matrix(1,0,0,1,1345,1066.5) translate(0 17.1)"/><use xlink:href="#aj" transform="matrix(1,0,0,1,1185,1098.5) translate(0 17.1)"/><use xlink:href="#w" transform="matrix(1,0,0,1,1345,1098.5) translate(0 17.1)"/><use xlink:href="#ak" transform="matrix(1,0,0,1,1185,1130.5) translate(0 17.1)"/><use xlink:href="#F" transform="matrix(1,0,0,1,1345,1130.5) translate(0 17.1)"/><path d="M400.5 216h99.02c.26 0 .48.22.48.48 0 .27.22.48.48.48H580" stroke="#000" fill="none"/><path fill="#fff"/><path d="M391 226h-1v-20h1z"/><path fill="#fff"/><path d="M400.5 216.5h-20v-1h20z"/><path fill="#fff"/><path d="M401 226h-1v-20h1z"/><path d="M619.28 226.96l-20-10 20-10z" fill="#fff"/><path d="M619.5 207.4l-19.1 9.56 19.1 9.56-.45.9-20.9-10.46 20.9-10.44z"/><path fill="#fff"/><path d="M619.28 217.46h-20v-1h20z"/><path d="M599.28 216.96l-.5 3.17-1.43 2.74-2.17 2.17-2.74 1.4-3.16.52-3.16-.5-2.75-1.42-2.16-2.17-1.4-2.74-.52-3.17.5-3.16 1.43-2.74 2.17-2.17 2.75-1.43 3.16-.5 3.16.5 2.74 1.42 2.17 2.16 1.42 2.74.5 3.16z" fill="#fff"/><path d="M592.6 207l2.88 1.5 2.28 2.26 1.5 2.9.5 3.23-.48.06.5.08-.53 3.24-1.5 2.9-2.27 2.26-2.88 1.5-3.32.53-3.32-.53-2.9-1.5-2.26-2.27-1.5-2.9-.53-3.3.54-3.32 1.5-2.9 2.27-2.26 2.9-1.5 3.3-.54zm-6.33.96l-2.6 1.34-2.06 2.06-1.33 2.6-.5 3 .5 3 1.34 2.6 2.07 2.07 2.6 1.34 3 .5 3-.5 2.6-1.34 2.07-2.06 1.35-2.6.47-3-.48-3-1.36-2.6-2.06-2.07-2.6-1.34-3-.5z"/><path d="M400.5 456.96H488c6.63 0 12-5.37 12-12v-120c0-6.62 5.37-12 12-12h68" stroke="#000" fill="none"/><path fill="#fff"/><path d="M391 466.96h-1v-20h1z"/><path fill="#fff"/><path d="M400.5 457.46h-20v-1h20z"/><path fill="#fff"/><path d="M401 466.96h-1v-20h1z"/><path d="M619.28 322.96l-20-10 20-10z" fill="#fff"/><path d="M619.5 303.4l-19.1 9.56 19.1 9.56-.45.9-20.9-10.46 20.9-10.44z"/><path fill="#fff"/><path d="M619.28 313.46h-20v-1h20z"/><path d="M599.28 312.96l-.5 3.17-1.43 2.74-2.17 2.17-2.74 1.4-3.16.52-3.16-.5-2.75-1.42-2.16-2.17-1.4-2.74-.52-3.17.5-3.16 1.43-2.74 2.17-2.17 2.75-1.43 3.16-.5 3.16.5 2.74 1.42 2.17 2.16 1.42 2.74.5 3.16z" fill="#fff"/><path d="M592.6 303l2.88 1.5 2.28 2.26 1.5 2.9.5 3.23-.48.06.5.08-.53 3.24-1.5 2.9-2.27 2.26-2.88 1.5-3.32.53-3.32-.53-2.9-1.5-2.26-2.27-1.5-2.9-.53-3.3.54-3.32 1.5-2.9 2.27-2.26 2.9-1.5 3.3-.54zm-6.33.96l-2.6 1.34-2.06 2.06-1.33 2.6-.5 3 .5 3 1.34 2.6 2.07 2.07 2.6 1.34 3 .5 3-.5 2.6-1.34 2.07-2.06 1.35-2.6.47-3-.48-3-1.36-2.6-2.06-2.07-2.6-1.34-3-.5z"/><path d="M400.5 697.93H488c6.63 0 12 5.37 12 12v36.03c0 6.63 5.37 12 12 12h68" stroke="#000" fill="none"/><path fill="#fff"/><path d="M391 707.93h-1v-20h1z"/><path fill="#fff"/><path d="M400.5 698.43h-20v-1h20z"/><path fill="#fff"/><path d="M401 707.93h-1v-20h1z"/><path d="M619.28 767.96l-20-10 20-10z" fill="#fff"/><path d="M619.5 748.4l-19.1 9.56 19.1 9.56-.45.9-20.9-10.46 20.9-10.44z"/><path fill="#fff"/><path d="M619.28 758.46h-20v-1h20z"/><path d="M599.28 757.96l-.5 3.17-1.43 2.74-2.17 2.17-2.74 1.4-3.16.52-3.16-.5-2.75-1.42-2.16-2.17-1.4-2.74-.52-3.17.5-3.16 1.43-2.74 2.17-2.17 2.75-1.43 3.16-.5 3.16.5 2.74 1.42 2.17 2.16 1.42 2.74.5 3.16z" fill="#fff"/><path d="M592.6 748l2.88 1.5 2.28 2.26 1.5 2.9.5 3.23-.48.06.5.08-.53 3.24-1.5 2.9-2.27 2.26-2.88 1.5-3.32.53-3.32-.53-2.9-1.5-2.26-2.27-1.5-2.9-.53-3.3.54-3.32 1.5-2.9 2.27-2.26 2.9-1.5 3.3-.54zm-6.33.96l-2.6 1.34-2.06 2.06-1.33 2.6-.5 3 .5 3 1.34 2.6 2.07 2.07 2.6 1.34 3 .5 3-.5 2.6-1.34 2.07-2.06 1.35-2.6.47-3-.48-3-1.36-2.6-2.06-2.07-2.6-1.34-3-.5z"/><path d="M960.5 216.96h8c6.63 0 12 5.38 12 12v496.5c0 .28-.22.5-.5.5" stroke="#000" fill="none"/><path fill="#fff"/><path d="M951 226.96h-1v-20h1z"/><path fill="#fff"/><path d="M960.5 217.46h-20v-1h20z"/><path fill="#fff"/><path d="M961 226.96h-1v-20h1z"/><path d="M940.72 715.96l20 10-20 10z" fill="#fff"/><path d="M961.84 725.96l-20.9 10.45-.44-.88 19.1-9.56-19.1-9.55.45-.88z"/><path fill="#fff"/><path d="M960.72 726.46h-20v-1h20z"/><path d="M980.72 725.96l-.5 3.17-1.43 2.74-2.17 2.17-2.75 1.4-3.16.52-3.16-.5-2.74-1.42-2.17-2.17-1.42-2.74-.5-3.17.5-3.16 1.42-2.74 2.17-2.17 2.74-1.43 3.16-.5 3.16.5 2.75 1.42 2.16 2.16 1.4 2.74.52 3.16z" fill="#fff"/><path d="M974.04 716l2.9 1.5 2.26 2.26 1.5 2.9.52 3.23-.5.06.5.08-.53 3.24-1.5 2.9-2.27 2.26-2.9 1.5-3.3.53-3.33-.53-2.88-1.5-2.28-2.27-1.5-2.9-.52-3.3.53-3.32 1.5-2.9 2.27-2.26 2.88-1.5 3.32-.54zm-6.32.96l-2.6 1.34-2.06 2.06-1.35 2.6-.47 3 .48 3 1.36 2.6 2.06 2.07 2.6 1.34 3 .5 3-.5 2.6-1.34 2.07-2.06 1.33-2.6.5-3-.5-3-1.34-2.6-2.07-2.07-2.6-1.34-3-.5z"/><path d="M1159.5 496h-8c-6.63 0-12-5.37-12-12V280.5c0-.28.22-.5.5-.5" stroke="#000" fill="none"/><path fill="#fff"/><path d="M1170 506h-1v-20h1z"/><path fill="#fff"/><path d="M1179.5 496.5h-20v-1h20z"/><path fill="#fff"/><path d="M1160 506h-1v-20h1z"/><path d="M1179.28 290l-20-10 20-10z" fill="#fff"/><path d="M1179.5 270.45l-19.1 9.55 19.1 9.55-.45.9-20.9-10.45 20.9-10.45z"/><path fill="#fff"/><path d="M1179.28 280.5h-20v-1h20z"/><path d="M1159.28 280l-.5 3.16-1.43 2.75-2.17 2.17-2.74 1.42-3.16.5-3.16-.5-2.75-1.43-2.16-2.16-1.4-2.74-.52-3.16.5-3.16 1.43-2.75 2.17-2.17 2.75-1.42 3.16-.5 3.16.5 2.74 1.43 2.17 2.16 1.42 2.74.5 3.16z" fill="#fff"/><path d="M1152.6 270.03l2.88 1.5 2.28 2.27 1.5 2.88.5 3.24-.48.08.5.08-.53 3.24-1.5 2.88-2.27 2.28-2.88 1.5-3.32.53-3.32-.53-2.9-1.5-2.26-2.27-1.5-2.88-.53-3.32.54-3.32 1.5-2.88 2.27-2.28 2.9-1.5 3.3-.53zm-6.33.96l-2.6 1.34-2.06 2.05-1.33 2.6-.5 3 .5 3 1.34 2.6 2.07 2.06 2.6 1.35 3 .5 3-.5 2.6-1.34 2.07-2.05 1.35-2.6.47-3-.48-3-1.36-2.6-2.06-2.06-2.6-1.35-3-.5z"/><path d="M1159.5 776h-8c-6.63 0-12-5.37-12-12V528.5c0-.28.22-.5.5-.5" stroke="#000" fill="none"/><path fill="#fff"/><path d="M1170 786h-1v-20h1z"/><path fill="#fff"/><path d="M1179.5 776.5h-20v-1h20z"/><path fill="#fff"/><path d="M1160 786h-1v-20h1z"/><path d="M1179.28 538l-20-10 20-10z" fill="#fff"/><path d="M1179.5 518.45l-19.1 9.55 19.1 9.55-.45.9-20.9-10.45 20.9-10.45z"/><path fill="#fff"/><path d="M1179.28 528.5h-20v-1h20z"/><path d="M1159.28 528l-.5 3.16-1.43 2.75-2.17 2.17-2.74 1.42-3.16.5-3.16-.5-2.75-1.43-2.16-2.16-1.4-2.74-.52-3.16.5-3.16 1.43-2.75 2.17-2.17 2.75-1.42 3.16-.5 3.16.5 2.74 1.43 2.17 2.16 1.42 2.74.5 3.16z" fill="#fff"/><path d="M1152.6 518.03l2.88 1.5 2.28 2.27 1.5 2.88.5 3.24-.48.08.5.08-.53 3.24-1.5 2.88-2.27 2.28-2.88 1.5-3.32.53-3.32-.53-2.9-1.5-2.26-2.27-1.5-2.88-.53-3.32.54-3.32 1.5-2.88 2.27-2.28 2.9-1.5 3.3-.53zm-6.33.96l-2.6 1.34-2.06 2.05-1.33 2.6-.5 3 .5 3 1.34 2.6 2.07 2.06 2.6 1.35 3 .5 3-.5 2.6-1.34 2.07-2.05 1.35-2.6.47-3-.48-3-1.36-2.6-2.06-2.06-2.6-1.35-3-.5z"/><path d="M1520.5 776h8c6.63 0 12 5.37 12 12v248c0 6.63-5.37 12-12 12h-8" stroke="#000" fill="none"/><path fill="#fff"/><path d="M1511 786h-1v-20h1z"/><path fill="#fff"/><path d="M1520.5 776.5h-20v-1h20z"/><path fill="#fff"/><path d="M1521 786h-1v-20h1z"/><path fill="#fff"/><path d="M1511 1058h-1v-20h1z"/><path fill="#fff"/><path d="M1520.5 1048.5h-20v-1h20z"/><path fill="#fff"/><path d="M1521 1058h-1v-20h1z"/><path d="M960.5 216.96h87.5c6.63 0 12 5.38 12 12V236c0 6.63 5.37 12 12 12h87.5" stroke="#000" fill="none"/><path fill="#fff"/><path d="M951 226.96h-1v-20h1z"/><path fill="#fff"/><path d="M960.5 217.46h-20v-1h20z"/><path fill="#fff"/><path d="M961 226.96h-1v-20h1z"/><path fill="#fff"/><path d="M1170 258h-1v-20h1z"/><path fill="#fff"/><path d="M1179.5 248.5h-20v-1h20z"/><path fill="#fff"/><path d="M1160 258h-1v-20h1z"/><path d="M1159.5 776H1072c-6.63 0-12-5.37-12-12V260.64c0-6.62-5.37-12-12-12h-68" stroke="#000" fill="none"/><path fill="#fff"/><path d="M1170 786h-1v-20h1z"/><path fill="#fff"/><path d="M1179.5 776.5h-20v-1h20z"/><path fill="#fff"/><path d="M1160 786h-1v-20h1z"/><path d="M940.72 238.64l20 10-20 10z" fill="#fff"/><path d="M961.84 248.64l-20.9 10.45-.44-.9 19.1-9.56-19.1-9.55.45-.9z"/><path fill="#fff"/><path d="M960.72 249.14h-20v-1h20z"/><path d="M980.72 248.64l-.5 3.17-1.43 2.75-2.17 2.16-2.75 1.43-3.16.5-3.16-.5-2.74-1.42-2.17-2.15-1.42-2.74-.5-3.16.5-3.16 1.42-2.74 2.17-2.17 2.74-1.42 3.16-.5 3.16.5 2.75 1.42 2.16 2.17 1.4 2.74.52 3.16z" fill="#fff"/><path d="M974.04 238.67l2.9 1.5 2.26 2.27 1.5 2.88.52 3.24-.5.08.5.08-.53 3.24-1.5 2.9-2.27 2.26-2.9 1.5-3.3.53-3.33-.53-2.88-1.5-2.28-2.27-1.5-2.9-.52-3.3.53-3.33 1.5-2.88 2.27-2.27 2.88-1.5 3.32-.53zm-6.32.97l-2.6 1.34-2.06 2.06-1.35 2.6-.47 3 .48 3 1.36 2.6 2.06 2.07 2.6 1.35 3 .5 3-.5 2.6-1.34 2.07-2.05 1.33-2.6.5-3-.5-3-1.34-2.6-2.07-2.07-2.6-1.34-3-.5z"/><path d="M1159.5 776H1072c-6.63 0-12 5.37-12 12v248c0 6.63-5.37 12-12 12h-68" stroke="#000" fill="none"/><path fill="#fff"/><path d="M1170 786h-1v-20h1z"/><path fill="#fff"/><path d="M1179.5 776.5h-20v-1h20z"/><path fill="#fff"/><path d="M1160 786h-1v-20h1z"/><path d="M940.72 1038l20 10-20 10z" fill="#fff"/><path d="M961.84 1048l-20.9 10.45-.44-.9 19.1-9.55-19.1-9.55.45-.9z"/><path fill="#fff"/><path d="M960.72 1048.5h-20v-1h20z"/><path d="M980.72 1048l-.5 3.16-1.43 2.75-2.17 2.17-2.75 1.42-3.16.5-3.16-.5-2.74-1.43-2.17-2.16-1.42-2.74-.5-3.16.5-3.16 1.42-2.75 2.17-2.17 2.74-1.42 3.16-.5 3.16.5 2.75 1.43 2.16 2.16 1.4 2.74.52 3.16z" fill="#fff"/><path d="M974.04 1038.03l2.9 1.5 2.26 2.27 1.5 2.88.52 3.24-.5.08.5.08-.53 3.24-1.5 2.88-2.27 2.28-2.9 1.5-3.3.53-3.33-.53-2.88-1.5-2.28-2.27-1.5-2.88-.52-3.32.53-3.32 1.5-2.88 2.27-2.28 2.88-1.5 3.32-.53zm-6.32.96l-2.6 1.34-2.06 2.05-1.35 2.6-.47 3 .48 3 1.36 2.6 2.06 2.06 2.6 1.35 3 .5 3-.5 2.6-1.34 2.07-2.05 1.33-2.6.5-3-.5-3-1.34-2.6-2.07-2.06-2.6-1.35-3-.5z"/><defs><path fill="#b2b2b2" d="M195 0l-88-114-31 24V0H24v-248h52v113l112-113h60L142-143 257 0h-62" id="al"/><path fill="#b2b2b2" d="M110-194c64 0 96 36 96 99 0 64-35 99-97 99-61 0-95-36-95-99 0-62 34-99 96-99zm-1 164c35 0 45-28 45-65 0-40-10-65-43-65-34 0-45 26-45 65 0 36 10 65 43 65" id="am"/><path fill="#b2b2b2" d="M135-150c-39-12-60 13-60 57V0H25l-1-190h47c2 13-1 29 3 40 6-28 27-53 61-41v41" id="an"/><path fill="#b2b2b2" d="M185-48c-13 30-37 53-82 52C43 2 14-33 14-96s30-98 90-98c62 0 83 45 84 108H66c0 31 8 55 39 56 18 0 30-7 34-22zm-45-69c5-46-57-63-70-21-2 6-4 13-4 21h74" id="ao"/><path fill="#b2b2b2" d="M133-34C117-15 103 5 69 4 32 3 11-16 11-54c-1-60 55-63 116-61 1-26-3-47-28-47-18 1-26 9-28 27l-52-2c7-38 36-58 82-57s74 22 75 68l1 82c-1 14 12 18 25 15v27c-30 8-71 5-69-32zm-48 3c29 0 43-24 42-57-32 0-66-3-65 30 0 17 8 27 23 27" id="ap"/><path fill="#b2b2b2" d="M135-194c87-1 58 113 63 194h-50c-7-57 23-157-34-157-59 0-34 97-39 157H25l-1-190h47c2 12-1 28 3 38 12-26 28-41 61-42" id="aq"/><g id="a"><use transform="matrix(0.07407407407407408,0,0,0.07407407407407408,0,0)" xlink:href="#al"/><use transform="matrix(0.07407407407407408,0,0,0.07407407407407408,19.185185185185187,0)" xlink:href="#am"/><use transform="matrix(0.07407407407407408,0,0,0.07407407407407408,35.40740740740741,0)" xlink:href="#an"/><use transform="matrix(0.07407407407407408,0,0,0.07407407407407408,45.777777777777786,0)" xlink:href="#ao"/><use transform="matrix(0.07407407407407408,0,0,0.07407407407407408,60.5925925925926,0)" xlink:href="#ap"/><use transform="matrix(0.07407407407407408,0,0,0.07407407407407408,75.40740740740742,0)" xlink:href="#aq"/></g><path fill="#b2b2b2" d="M169-182c-1-43-94-46-97-3 18 66 151 10 154 114 3 95-165 93-204 36-6-8-10-19-12-30l50-8c3 46 112 56 116 5-17-69-150-10-154-114-4-87 153-88 188-35 5 8 8 18 10 28" id="ar"/><path fill="#b2b2b2" d="M147 0L96-86 75-71V0H25v-261h50v150l67-79h53l-66 74L201 0h-54" id="as"/><path fill="#b2b2b2" d="M25-224v-37h50v37H25zM25 0v-190h50V0H25" id="at"/><g id="b"><use transform="matrix(0.07407407407407408,0,0,0.07407407407407408,0,0)" xlink:href="#ar"/><use transform="matrix(0.07407407407407408,0,0,0.07407407407407408,17.77777777777778,0)" xlink:href="#as"/><use transform="matrix(0.07407407407407408,0,0,0.07407407407407408,32.592592592592595,0)" xlink:href="#at"/><use transform="matrix(0.07407407407407408,0,0,0.07407407407407408,40,0)" xlink:href="#aq"/></g><path fill="#b2b2b2" d="M67-125c0 53 21 87 73 88 37 1 54-22 65-47l45 17C233-25 199 4 140 4 58 4 20-42 15-125 8-235 124-281 211-232c18 10 29 29 36 50l-46 12c-8-25-30-41-62-41-52 0-71 34-72 86" id="au"/><g id="c"><use transform="matrix(0.07407407407407408,0,0,0.07407407407407408,0,0)" xlink:href="#au"/><use transform="matrix(0.07407407407407408,0,0,0.07407407407407408,19.185185185185187,0)" xlink:href="#ap"/><use transform="matrix(0.07407407407407408,0,0,0.07407407407407408,34,0)" xlink:href="#an"/><use transform="matrix(0.07407407407407408,0,0,0.07407407407407408,44.370370370370374,0)" xlink:href="#ao"/></g><path fill="#b2b2b2" d="M14-72v-43h91v43H14" id="av"/><use transform="matrix(0.07407407407407408,0,0,0.07407407407407408,0,0)" xlink:href="#av" id="d"/><path fill="#b2b2b2" d="M24 0v-248h195v40H76v63h132v40H76v65h150V0H24" id="aw"/><path fill="#b2b2b2" d="M115-3C79 11 28 4 28-45v-112H4v-33h27l15-45h31v45h36v33H77v99c-1 23 16 31 38 25v30" id="ax"/><path fill="#b2b2b2" d="M123 10C108 53 80 86 19 72V37c35 8 53-11 59-39L3-190h52l48 148c12-52 28-100 44-148h51" id="ay"/><g id="e"><use transform="matrix(0.07407407407407408,0,0,0.07407407407407408,0,0)" xlink:href="#aw"/><use transform="matrix(0.07407407407407408,0,0,0.07407407407407408,17.77777777777778,0)" xlink:href="#aq"/><use transform="matrix(0.07407407407407408,0,0,0.07407407407407408,34,0)" xlink:href="#ax"/><use transform="matrix(0.07407407407407408,0,0,0.07407407407407408,42.814814814814824,0)" xlink:href="#at"/><use transform="matrix(0.07407407407407408,0,0,0.07407407407407408,50.22222222222223,0)" xlink:href="#ax"/><use transform="matrix(0.07407407407407408,0,0,0.07407407407407408,59.037037037037045,0)" xlink:href="#ay"/></g><path fill="#b2b2b2" d="M240-174c0 40-23 61-54 70L253 0h-59l-57-94H76V0H24v-248c93 4 217-23 216 74zM76-134c48-2 112 12 112-38 0-48-66-32-112-35v73" id="az"/><path fill="#b2b2b2" d="M25 0v-261h50V0H25" id="aA"/><path fill="#b2b2b2" d="M137-138c1-29-70-34-71-4 15 46 118 7 119 86 1 83-164 76-172 9l43-7c4 19 20 25 44 25 33 8 57-30 24-41C81-84 22-81 20-136c-2-80 154-74 161-7" id="aB"/><path fill="#b2b2b2" d="M114-157C55-157 80-60 75 0H25v-261h50l-1 109c12-26 28-41 61-42 86-1 58 113 63 194h-50c-7-57 23-157-34-157" id="aC"/><path fill="#b2b2b2" d="M135-194c53 0 70 44 70 98 0 56-19 98-73 100-31 1-45-17-59-34 3 33 2 69 2 105H25l-1-265h48c2 10 0 23 3 31 11-24 29-35 60-35zM114-30c33 0 39-31 40-66 0-38-9-64-40-64-56 0-55 130 0 130" id="aD"/><g id="f"><use transform="matrix(0.07407407407407408,0,0,0.07407407407407408,0,0)" xlink:href="#az"/><use transform="matrix(0.07407407407407408,0,0,0.07407407407407408,19.185185185185187,0)" xlink:href="#ao"/><use transform="matrix(0.07407407407407408,0,0,0.07407407407407408,34,0)" xlink:href="#aA"/><use transform="matrix(0.07407407407407408,0,0,0.07407407407407408,41.407407407407405,0)" xlink:href="#ap"/><use transform="matrix(0.07407407407407408,0,0,0.07407407407407408,56.22222222222222,0)" xlink:href="#ax"/><use transform="matrix(0.07407407407407408,0,0,0.07407407407407408,65.03703703703704,0)" xlink:href="#at"/><use transform="matrix(0.07407407407407408,0,0,0.07407407407407408,72.44444444444444,0)" xlink:href="#am"/><use transform="matrix(0.07407407407407408,0,0,0.07407407407407408,88.66666666666667,0)" xlink:href="#aq"/><use transform="matrix(0.07407407407407408,0,0,0.07407407407407408,104.8888888888889,0)" xlink:href="#aB"/><use transform="matrix(0.07407407407407408,0,0,0.07407407407407408,119.70370370370372,0)" xlink:href="#aC"/><use transform="matrix(0.07407407407407408,0,0,0.07407407407407408,135.92592592592595,0)" xlink:href="#at"/><use transform="matrix(0.07407407407407408,0,0,0.07407407407407408,143.33333333333337,0)" xlink:href="#aD"/></g><path fill="#b2b2b2" d="M24-248c120-7 223 5 221 122C244-46 201 0 124 0H24v-248zM76-40c74 7 117-18 117-86 0-67-45-88-117-82v168" id="aE"/><path fill="#b2b2b2" d="M195-6C206 82 75 100 31 46c-4-6-6-13-8-21l49-6c3 16 16 24 34 25 40 0 42-37 40-79-11 22-30 35-61 35-53 0-70-43-70-97 0-56 18-96 73-97 30 0 46 14 59 34l2-30h47zm-90-29c32 0 41-27 41-63 0-35-9-62-40-62-32 0-39 29-40 63 0 36 9 62 39 62" id="aF"/><path fill="#b2b2b2" d="M220-157c-53 9-28 100-34 157h-49v-107c1-27-5-49-29-50C55-147 81-57 75 0H25l-1-190h47c2 12-1 28 3 38 10-53 101-56 108 0 13-22 24-43 59-42 82 1 51 116 57 194h-49v-107c-1-25-5-48-29-50" id="aG"/><g id="g"><use transform="matrix(0.07407407407407408,0,0,0.07407407407407408,0,0)" xlink:href="#aE"/><use transform="matrix(0.07407407407407408,0,0,0.07407407407407408,19.185185185185187,0)" xlink:href="#at"/><use transform="matrix(0.07407407407407408,0,0,0.07407407407407408,26.592592592592595,0)" xlink:href="#ap"/><use transform="matrix(0.07407407407407408,0,0,0.07407407407407408,41.40740740740741,0)" xlink:href="#aF"/><use transform="matrix(0.07407407407407408,0,0,0.07407407407407408,57.62962962962964,0)" xlink:href="#an"/><use transform="matrix(0.07407407407407408,0,0,0.07407407407407408,68,0)" xlink:href="#ap"/><use transform="matrix(0.07407407407407408,0,0,0.07407407407407408,82.81481481481481,0)" xlink:href="#aG"/></g><path fill="#b2b2b2" d="M117-194c89-4 53 116 60 194h-32v-121c0-31-8-49-39-48C34-167 62-67 57 0H25l-1-190h30c1 10-1 24 2 32 11-22 29-35 61-36" id="aH"/><path fill="#b2b2b2" d="M106-169C34-169 62-67 57 0H25v-261h32l-1 103c12-21 28-36 61-36 89 0 53 116 60 194h-32v-121c2-32-8-49-39-48" id="aI"/><path fill="#b2b2b2" d="M141-36C126-15 110 5 73 4 37 3 15-17 15-53c-1-64 63-63 125-63 3-35-9-54-41-54-24 1-41 7-42 31l-33-3c5-37 33-52 76-52 45 0 72 20 72 64v82c-1 20 7 32 28 27v20c-31 9-61-2-59-35zM48-53c0 20 12 33 32 33 41-3 63-29 60-74-43 2-92-5-92 41" id="aJ"/><g id="h"><use transform="matrix(0.04320987654320988,0,0,0.04320987654320988,0,0)" xlink:href="#aH"/><use transform="matrix(0.04320987654320988,0,0,0.04320987654320988,8.641975308641976,0)" xlink:href="#aI"/><use transform="matrix(0.04320987654320988,0,0,0.04320987654320988,17.283950617283953,0)" xlink:href="#aJ"/><use transform="matrix(0.04320987654320988,0,0,0.04320987654320988,25.925925925925927,0)" xlink:href="#aH"/></g><path fill="#b2b2b2" d="M85-194c31 0 48 13 60 33l-1-100h32l1 261h-30c-2-10 0-23-3-31C134-8 116 4 85 4 32 4 16-35 15-94c0-66 23-100 70-100zm9 24c-40 0-46 34-46 75 0 40 6 74 45 74 42 0 51-32 51-76 0-42-9-74-50-73" id="aK"/><path fill="#b2b2b2" d="M177-190C167-65 218 103 67 71c-23-6-38-20-44-43l32-5c15 47 100 32 89-28v-30C133-14 115 1 83 1 29 1 15-40 15-95c0-56 16-97 71-98 29-1 48 16 59 35 1-10 0-23 2-32h30zM94-22c36 0 50-32 50-73 0-42-14-75-50-75-39 0-46 34-46 75s6 73 46 73" id="aL"/><g id="i"><use transform="matrix(0.04320987654320988,0,0,0.04320987654320988,0,0)" xlink:href="#aK"/><use transform="matrix(0.04320987654320988,0,0,0.04320987654320988,8.641975308641976,0)" xlink:href="#aJ"/><use transform="matrix(0.04320987654320988,0,0,0.04320987654320988,17.283950617283953,0)" xlink:href="#aH"/><use transform="matrix(0.04320987654320988,0,0,0.04320987654320988,25.925925925925927,0)" xlink:href="#aL"/></g><path fill="#b2b2b2" d="M32 76v-337h29V76H32" id="aM"/><use transform="matrix(0.04320987654320988,0,0,0.04320987654320988,0,0)" xlink:href="#aM" id="j"/><path fill="#b2b2b2" d="M140-251c81 0 123 46 123 126C263-46 219 4 140 4 59 4 17-45 17-125s42-126 123-126zm0 227c63 0 89-41 89-101s-29-99-89-99c-61 0-89 39-89 99S79-25 140-24" id="aN"/><path fill="#b2b2b2" d="M96-169c-40 0-48 33-48 73s9 75 48 75c24 0 41-14 43-38l32 2c-6 37-31 61-74 61-59 0-76-41-82-99-10-93 101-131 147-64 4 7 5 14 7 22l-32 3c-4-21-16-35-41-35" id="aO"/><path fill="#b2b2b2" d="M59-47c-2 24 18 29 38 22v24C64 9 27 4 27-40v-127H5v-23h24l9-43h21v43h35v23H59v120" id="aP"/><path fill="#b2b2b2" d="M100-194c62-1 85 37 85 99 1 63-27 99-86 99S16-35 15-95c0-66 28-99 85-99zM99-20c44 1 53-31 53-75 0-43-8-75-51-75s-53 32-53 75 10 74 51 75" id="aQ"/><path fill="#b2b2b2" d="M115-194c53 0 69 39 70 98 0 66-23 100-70 100C84 3 66-7 56-30L54 0H23l1-261h32v101c10-23 28-34 59-34zm-8 174c40 0 45-34 45-75 0-40-5-75-45-74-42 0-51 32-51 76 0 43 10 73 51 73" id="aR"/><path fill="#b2b2b2" d="M100-194c63 0 86 42 84 106H49c0 40 14 67 53 68 26 1 43-12 49-29l28 8c-11 28-37 45-77 45C44 4 14-33 15-96c1-61 26-98 85-98zm52 81c6-60-76-77-97-28-3 7-6 17-6 28h103" id="aS"/><path fill="#b2b2b2" d="M114-163C36-179 61-72 57 0H25l-1-190h30c1 12-1 29 2 39 6-27 23-49 58-41v29" id="aT"/><g id="k"><use transform="matrix(0.04320987654320988,0,0,0.04320987654320988,0,0)" xlink:href="#aN"/><use transform="matrix(0.04320987654320988,0,0,0.04320987654320988,12.098765432098766,0)" xlink:href="#aO"/><use transform="matrix(0.04320987654320988,0,0,0.04320987654320988,19.876543209876544,0)" xlink:href="#aP"/><use transform="matrix(0.04320987654320988,0,0,0.04320987654320988,24.19753086419753,0)" xlink:href="#aQ"/><use transform="matrix(0.04320987654320988,0,0,0.04320987654320988,32.839506172839506,0)" xlink:href="#aR"/><use transform="matrix(0.04320987654320988,0,0,0.04320987654320988,41.48148148148148,0)" xlink:href="#aS"/><use transform="matrix(0.04320987654320988,0,0,0.04320987654320988,50.123456790123456,0)" xlink:href="#aT"/></g><path fill="#b2b2b2" d="M101-251c82-7 93 87 43 132L82-64C71-53 59-42 53-27h129V0H18c2-99 128-94 128-182 0-28-16-43-45-43s-46 15-49 41l-32-3c6-41 34-60 81-64" id="aU"/><path fill="#b2b2b2" d="M99-251c64 0 84 50 84 122C183-37 130 33 47-8c-14-7-20-23-25-40l30-5c6 39 69 39 84 7 9-19 16-44 16-74-10 22-31 35-62 35-49 0-73-33-73-83 0-54 28-83 82-83zm-1 141c31-1 51-18 51-49 0-36-14-67-51-67-34 0-49 23-49 58 0 34 15 58 49 58" id="aV"/><path fill="#b2b2b2" d="M68-38c1 34 0 65-14 84H32c9-13 17-26 17-46H33v-38h35" id="aW"/><g id="l"><use transform="matrix(0.04320987654320988,0,0,0.04320987654320988,0,0)" xlink:href="#aU"/><use transform="matrix(0.04320987654320988,0,0,0.04320987654320988,8.641975308641976,0)" xlink:href="#aV"/><use transform="matrix(0.04320987654320988,0,0,0.04320987654320988,17.283950617283953,0)" xlink:href="#aW"/></g><path fill="#b2b2b2" d="M101-251c68 0 85 55 85 127S166 4 100 4C33 4 14-52 14-124c0-73 17-127 87-127zm-1 229c47 0 54-49 54-102s-4-102-53-102c-51 0-55 48-55 102 0 53 5 102 54 102" id="aX"/><path fill="#b2b2b2" d="M27 0v-27h64v-190l-56 39v-29l58-41h29v221h61V0H27" id="aY"/><g id="m"><use transform="matrix(0.04320987654320988,0,0,0.04320987654320988,0,0)" xlink:href="#aU"/><use transform="matrix(0.04320987654320988,0,0,0.04320987654320988,8.641975308641976,0)" xlink:href="#aX"/><use transform="matrix(0.04320987654320988,0,0,0.04320987654320988,17.283950617283953,0)" xlink:href="#aY"/><use transform="matrix(0.04320987654320988,0,0,0.04320987654320988,25.925925925925927,0)" xlink:href="#aV"/></g><path d="M96-169c-40 0-48 33-48 73s9 75 48 75c24 0 41-14 43-38l32 2c-6 37-31 61-74 61-59 0-76-41-82-99-10-93 101-131 147-64 4 7 5 14 7 22l-32 3c-4-21-16-35-41-35" id="aZ"/><path d="M141-36C126-15 110 5 73 4 37 3 15-17 15-53c-1-64 63-63 125-63 3-35-9-54-41-54-24 1-41 7-42 31l-33-3c5-37 33-52 76-52 45 0 72 20 72 64v82c-1 20 7 32 28 27v20c-31 9-61-2-59-35zM48-53c0 20 12 33 32 33 41-3 63-29 60-74-43 2-92-5-92 41" id="ba"/><path d="M59-47c-2 24 18 29 38 22v24C64 9 27 4 27-40v-127H5v-23h24l9-43h21v43h35v23H59v120" id="bb"/><path d="M100-194c63 0 86 42 84 106H49c0 40 14 67 53 68 26 1 43-12 49-29l28 8c-11 28-37 45-77 45C44 4 14-33 15-96c1-61 26-98 85-98zm52 81c6-60-76-77-97-28-3 7-6 17-6 28h103" id="bc"/><path d="M177-190C167-65 218 103 67 71c-23-6-38-20-44-43l32-5c15 47 100 32 89-28v-30C133-14 115 1 83 1 29 1 15-40 15-95c0-56 16-97 71-98 29-1 48 16 59 35 1-10 0-23 2-32h30zM94-22c36 0 50-32 50-73 0-42-14-75-50-75-39 0-46 34-46 75s6 73 46 73" id="bd"/><path d="M100-194c62-1 85 37 85 99 1 63-27 99-86 99S16-35 15-95c0-66 28-99 85-99zM99-20c44 1 53-31 53-75 0-43-8-75-51-75s-53 32-53 75 10 74 51 75" id="be"/><path d="M114-163C36-179 61-72 57 0H25l-1-190h30c1 12-1 29 2 39 6-27 23-49 58-41v29" id="bf"/><path d="M24-231v-30h32v30H24zM24 0v-190h32V0H24" id="bg"/><path d="M135-143c-3-34-86-38-87 0 15 53 115 12 119 90S17 21 10-45l28-5c4 36 97 45 98 0-10-56-113-15-118-90-4-57 82-63 122-42 12 7 21 19 24 35" id="bh"/><g id="n"><use transform="matrix(0.05,0,0,0.05,0,0)" xlink:href="#aZ"/><use transform="matrix(0.05,0,0,0.05,9,0)" xlink:href="#ba"/><use transform="matrix(0.05,0,0,0.05,19,0)" xlink:href="#bb"/><use transform="matrix(0.05,0,0,0.05,24,0)" xlink:href="#bc"/><use transform="matrix(0.05,0,0,0.05,34,0)" xlink:href="#bd"/><use transform="matrix(0.05,0,0,0.05,44,0)" xlink:href="#be"/><use transform="matrix(0.05,0,0,0.05,54,0)" xlink:href="#bf"/><use transform="matrix(0.05,0,0,0.05,59.95,0)" xlink:href="#bg"/><use transform="matrix(0.05,0,0,0.05,63.900000000000006,0)" xlink:href="#bc"/><use transform="matrix(0.05,0,0,0.05,73.9,0)" xlink:href="#bh"/></g><path d="M85-194c31 0 48 13 60 33l-1-100h32l1 261h-30c-2-10 0-23-3-31C134-8 116 4 85 4 32 4 16-35 15-94c0-66 23-100 70-100zm9 24c-40 0-46 34-46 75 0 40 6 74 45 74 42 0 51-32 51-76 0-42-9-74-50-73" id="bi"/><g id="o"><use transform="matrix(0.05,0,0,0.05,0,0)" xlink:href="#bg"/><use transform="matrix(0.05,0,0,0.05,3.95,0)" xlink:href="#bi"/></g><path d="M115-194c53 0 69 39 70 98 0 66-23 100-70 100C84 3 66-7 56-30L54 0H23l1-261h32v101c10-23 28-34 59-34zm-8 174c40 0 45-34 45-75 0-40-5-75-45-74-42 0-51 32-51 76 0 43 10 73 51 73" id="bj"/><path d="M117-194c89-4 53 116 60 194h-32v-121c0-31-8-49-39-48C34-167 62-67 57 0H25l-1-190h30c1 10-1 24 2 32 11-22 29-35 61-36" id="bk"/><g id="p"><use transform="matrix(0.05,0,0,0.05,0,0)" xlink:href="#bj"/><use transform="matrix(0.05,0,0,0.05,10,0)" xlink:href="#bg"/><use transform="matrix(0.05,0,0,0.05,13.949999999999998,0)" xlink:href="#bd"/><use transform="matrix(0.05,0,0,0.05,23.95,0)" xlink:href="#bg"/><use transform="matrix(0.05,0,0,0.05,27.899999999999995,0)" xlink:href="#bk"/><use transform="matrix(0.05,0,0,0.05,37.9,0)" xlink:href="#bb"/></g><path d="M210-169c-67 3-38 105-44 169h-31v-121c0-29-5-50-35-48C34-165 62-65 56 0H25l-1-190h30c1 10-1 24 2 32 10-44 99-50 107 0 11-21 27-35 58-36 85-2 47 119 55 194h-31v-121c0-29-5-49-35-48" id="bl"/><g id="q"><use transform="matrix(0.05,0,0,0.05,0,0)" xlink:href="#bk"/><use transform="matrix(0.05,0,0,0.05,10,0)" xlink:href="#ba"/><use transform="matrix(0.05,0,0,0.05,20,0)" xlink:href="#bl"/><use transform="matrix(0.05,0,0,0.05,34.95,0)" xlink:href="#bc"/></g><path d="M108 0H70L1-190h34L89-25l56-165h34" id="bm"/><path d="M106-169C34-169 62-67 57 0H25v-261h32l-1 103c12-21 28-36 61-36 89 0 53 116 60 194h-32v-121c2-32-8-49-39-48" id="bn"/><g id="r"><use transform="matrix(0.05,0,0,0.05,0,0)" xlink:href="#bm"/><use transform="matrix(0.05,0,0,0.05,9,0)" xlink:href="#ba"/><use transform="matrix(0.05,0,0,0.05,19,0)" xlink:href="#bf"/><use transform="matrix(0.05,0,0,0.05,24.95,0)" xlink:href="#aZ"/><use transform="matrix(0.05,0,0,0.05,33.95,0)" xlink:href="#bn"/><use transform="matrix(0.05,0,0,0.05,43.95,0)" xlink:href="#ba"/><use transform="matrix(0.05,0,0,0.05,53.95,0)" xlink:href="#bf"/></g><g id="s"><use transform="matrix(0.05,0,0,0.05,0,0)" xlink:href="#bj"/><use transform="matrix(0.05,0,0,0.05,10,0)" xlink:href="#bf"/><use transform="matrix(0.05,0,0,0.05,15.949999999999998,0)" xlink:href="#ba"/><use transform="matrix(0.05,0,0,0.05,25.950000000000003,0)" xlink:href="#bk"/><use transform="matrix(0.05,0,0,0.05,35.95,0)" xlink:href="#bi"/><use transform="matrix(0.05,0,0,0.05,45.95,0)" xlink:href="#bh"/></g><g id="t"><use transform="matrix(0.05,0,0,0.05,0,0)" xlink:href="#bg"/><use transform="matrix(0.05,0,0,0.05,3.95,0)" xlink:href="#bi"/></g><g id="u"><use transform="matrix(0.05,0,0,0.05,0,0)" xlink:href="#bj"/><use transform="matrix(0.05,0,0,0.05,10,0)" xlink:href="#bg"/><use transform="matrix(0.05,0,0,0.05,13.949999999999998,0)" xlink:href="#bd"/><use transform="matrix(0.05,0,0,0.05,23.95,0)" xlink:href="#bg"/><use transform="matrix(0.05,0,0,0.05,27.899999999999995,0)" xlink:href="#bk"/><use transform="matrix(0.05,0,0,0.05,37.9,0)" xlink:href="#bb"/></g><g id="v"><use transform="matrix(0.05,0,0,0.05,0,0)" xlink:href="#bk"/><use transform="matrix(0.05,0,0,0.05,10,0)" xlink:href="#ba"/><use transform="matrix(0.05,0,0,0.05,20,0)" xlink:href="#bl"/><use transform="matrix(0.05,0,0,0.05,34.95,0)" xlink:href="#bc"/></g><g id="w"><use transform="matrix(0.05,0,0,0.05,0,0)" xlink:href="#bm"/><use transform="matrix(0.05,0,0,0.05,9,0)" xlink:href="#ba"/><use transform="matrix(0.05,0,0,0.05,19,0)" xlink:href="#bf"/><use transform="matrix(0.05,0,0,0.05,24.95,0)" xlink:href="#aZ"/><use transform="matrix(0.05,0,0,0.05,33.95,0)" xlink:href="#bn"/><use transform="matrix(0.05,0,0,0.05,43.95,0)" xlink:href="#ba"/><use transform="matrix(0.05,0,0,0.05,53.95,0)" xlink:href="#bf"/></g><g id="x"><use transform="matrix(0.05,0,0,0.05,0,0)" xlink:href="#bg"/><use transform="matrix(0.05,0,0,0.05,3.95,0)" xlink:href="#bk"/><use transform="matrix(0.05,0,0,0.05,13.949999999999998,0)" xlink:href="#bd"/><use transform="matrix(0.05,0,0,0.05,23.95,0)" xlink:href="#bf"/><use transform="matrix(0.05,0,0,0.05,29.899999999999995,0)" xlink:href="#bc"/><use transform="matrix(0.05,0,0,0.05,39.9,0)" xlink:href="#bi"/><use transform="matrix(0.05,0,0,0.05,49.9,0)" xlink:href="#bg"/><use transform="matrix(0.05,0,0,0.05,53.85,0)" xlink:href="#bc"/><use transform="matrix(0.05,0,0,0.05,63.85,0)" xlink:href="#bk"/><use transform="matrix(0.05,0,0,0.05,73.85,0)" xlink:href="#bb"/><use transform="matrix(0.05,0,0,0.05,78.85,0)" xlink:href="#bh"/></g><path d="M115-194c55 1 70 41 70 98S169 2 115 4C84 4 66-9 55-30l1 105H24l-1-265h31l2 30c10-21 28-34 59-34zm-8 174c40 0 45-34 45-75s-6-73-45-74c-42 0-51 32-51 76 0 43 10 73 51 73" id="bo"/><path d="M84 4C-5 8 30-112 23-190h32v120c0 31 7 50 39 49 72-2 45-101 50-169h31l1 190h-30c-1-10 1-25-2-33-11 22-28 36-60 37" id="bp"/><g id="y"><use transform="matrix(0.05,0,0,0.05,0,0)" xlink:href="#bo"/><use transform="matrix(0.05,0,0,0.05,10,0)" xlink:href="#bf"/><use transform="matrix(0.05,0,0,0.05,15.949999999999998,0)" xlink:href="#be"/><use transform="matrix(0.05,0,0,0.05,25.950000000000003,0)" xlink:href="#bi"/><use transform="matrix(0.05,0,0,0.05,35.95,0)" xlink:href="#bp"/><use transform="matrix(0.05,0,0,0.05,45.95,0)" xlink:href="#aZ"/><use transform="matrix(0.05,0,0,0.05,54.95,0)" xlink:href="#bb"/><use transform="matrix(0.05,0,0,0.05,59.95,0)" xlink:href="#bh"/></g><path d="M-5 72V49h209v23H-5" id="bq"/><g id="z"><use transform="matrix(0.05,0,0,0.05,0,0)" xlink:href="#bp"/><use transform="matrix(0.05,0,0,0.05,10,0)" xlink:href="#bh"/><use transform="matrix(0.05,0,0,0.05,19,0)" xlink:href="#bc"/><use transform="matrix(0.05,0,0,0.05,29,0)" xlink:href="#bf"/><use transform="matrix(0.05,0,0,0.05,34.95,0)" xlink:href="#bq"/><use transform="matrix(0.05,0,0,0.05,44.95,0)" xlink:href="#bg"/><use transform="matrix(0.05,0,0,0.05,48.900000000000006,0)" xlink:href="#bi"/></g><path d="M179-190L93 31C79 59 56 82 12 73V49c39 6 53-20 64-50L1-190h34L92-34l54-156h33" id="br"/><g id="A"><use transform="matrix(0.05,0,0,0.05,0,0)" xlink:href="#aZ"/><use transform="matrix(0.05,0,0,0.05,9,0)" xlink:href="#ba"/><use transform="matrix(0.05,0,0,0.05,19,0)" xlink:href="#bb"/><use transform="matrix(0.05,0,0,0.05,24,0)" xlink:href="#bc"/><use transform="matrix(0.05,0,0,0.05,34,0)" xlink:href="#bd"/><use transform="matrix(0.05,0,0,0.05,44,0)" xlink:href="#be"/><use transform="matrix(0.05,0,0,0.05,54,0)" xlink:href="#bf"/><use transform="matrix(0.05,0,0,0.05,59.95,0)" xlink:href="#br"/><use transform="matrix(0.05,0,0,0.05,68.95,0)" xlink:href="#bq"/><use transform="matrix(0.05,0,0,0.05,78.95,0)" xlink:href="#bg"/><use transform="matrix(0.05,0,0,0.05,82.9,0)" xlink:href="#bi"/></g><g id="B"><use transform="matrix(0.05,0,0,0.05,0,0)" xlink:href="#bj"/><use transform="matrix(0.05,0,0,0.05,10,0)" xlink:href="#bf"/><use transform="matrix(0.05,0,0,0.05,15.949999999999998,0)" xlink:href="#ba"/><use transform="matrix(0.05,0,0,0.05,25.950000000000003,0)" xlink:href="#bk"/><use transform="matrix(0.05,0,0,0.05,35.95,0)" xlink:href="#bi"/><use transform="matrix(0.05,0,0,0.05,45.95,0)" xlink:href="#bq"/><use transform="matrix(0.05,0,0,0.05,55.95,0)" xlink:href="#bg"/><use transform="matrix(0.05,0,0,0.05,59.900000000000006,0)" xlink:href="#bi"/></g><path d="M141 0L90-78 38 0H4l68-98-65-92h35l48 74 47-74h35l-64 92 68 98h-35" id="bs"/><g id="C"><use transform="matrix(0.05,0,0,0.05,0,0)" xlink:href="#bc"/><use transform="matrix(0.05,0,0,0.05,10,0)" xlink:href="#bs"/><use transform="matrix(0.05,0,0,0.05,19,0)" xlink:href="#bo"/><use transform="matrix(0.05,0,0,0.05,29,0)" xlink:href="#bg"/><use transform="matrix(0.05,0,0,0.05,32.95,0)" xlink:href="#bf"/><use transform="matrix(0.05,0,0,0.05,38.900000000000006,0)" xlink:href="#br"/><use transform="matrix(0.05,0,0,0.05,47.900000000000006,0)" xlink:href="#bq"/><use transform="matrix(0.05,0,0,0.05,57.900000000000006,0)" xlink:href="#bi"/><use transform="matrix(0.05,0,0,0.05,67.9,0)" xlink:href="#ba"/><use transform="matrix(0.05,0,0,0.05,77.9,0)" xlink:href="#bb"/><use transform="matrix(0.05,0,0,0.05,82.9,0)" xlink:href="#bc"/></g><g id="D"><use transform="matrix(0.05,0,0,0.05,0,0)" xlink:href="#bi"/><use transform="matrix(0.05,0,0,0.05,10,0)" xlink:href="#ba"/><use transform="matrix(0.05,0,0,0.05,20,0)" xlink:href="#bb"/><use transform="matrix(0.05,0,0,0.05,25,0)" xlink:href="#bc"/></g><g id="E"><use transform="matrix(0.05,0,0,0.05,0,0)" xlink:href="#bp"/><use transform="matrix(0.05,0,0,0.05,10,0)" xlink:href="#bh"/><use transform="matrix(0.05,0,0,0.05,19,0)" xlink:href="#bc"/><use transform="matrix(0.05,0,0,0.05,29,0)" xlink:href="#bi"/></g><g id="F"><use transform="matrix(0.05,0,0,0.05,0,0)" xlink:href="#bg"/><use transform="matrix(0.05,0,0,0.05,3.95,0)" xlink:href="#bk"/><use transform="matrix(0.05,0,0,0.05,13.949999999999998,0)" xlink:href="#bb"/></g><g id="G"><use transform="matrix(0.05,0,0,0.05,0,0)" xlink:href="#bo"/><use transform="matrix(0.05,0,0,0.05,10,0)" xlink:href="#bf"/><use transform="matrix(0.05,0,0,0.05,15.949999999999998,0)" xlink:href="#bg"/><use transform="matrix(0.05,0,0,0.05,19.9,0)" xlink:href="#aZ"/><use transform="matrix(0.05,0,0,0.05,28.899999999999995,0)" xlink:href="#bc"/></g><path d="M24 0v-261h32V0H24" id="bt"/><g id="H"><use transform="matrix(0.05,0,0,0.05,0,0)" xlink:href="#bi"/><use transform="matrix(0.05,0,0,0.05,10,0)" xlink:href="#bc"/><use transform="matrix(0.05,0,0,0.05,20,0)" xlink:href="#aZ"/><use transform="matrix(0.05,0,0,0.05,29,0)" xlink:href="#bg"/><use transform="matrix(0.05,0,0,0.05,32.95,0)" xlink:href="#bl"/><use transform="matrix(0.05,0,0,0.05,47.900000000000006,0)" xlink:href="#ba"/><use transform="matrix(0.05,0,0,0.05,57.900000000000006,0)" xlink:href="#bt"/></g><g id="I"><use transform="matrix(0.05,0,0,0.05,0,0)" xlink:href="#bi"/><use transform="matrix(0.05,0,0,0.05,10,0)" xlink:href="#bc"/><use transform="matrix(0.05,0,0,0.05,20,0)" xlink:href="#bh"/><use transform="matrix(0.05,0,0,0.05,29,0)" xlink:href="#aZ"/><use transform="matrix(0.05,0,0,0.05,38,0)" xlink:href="#bf"/><use transform="matrix(0.05,0,0,0.05,43.95,0)" xlink:href="#bg"/><use transform="matrix(0.05,0,0,0.05,47.900000000000006,0)" xlink:href="#bo"/><use transform="matrix(0.05,0,0,0.05,57.900000000000006,0)" xlink:href="#bb"/><use transform="matrix(0.05,0,0,0.05,62.900000000000006,0)" xlink:href="#bg"/><use transform="matrix(0.05,0,0,0.05,66.85000000000001,0)" xlink:href="#be"/><use transform="matrix(0.05,0,0,0.05,76.85000000000001,0)" xlink:href="#bk"/></g><g id="J"><use transform="matrix(0.05,0,0,0.05,0,0)" xlink:href="#bb"/><use transform="matrix(0.05,0,0,0.05,5,0)" xlink:href="#bc"/><use transform="matrix(0.05,0,0,0.05,15,0)" xlink:href="#bs"/><use transform="matrix(0.05,0,0,0.05,24,0)" xlink:href="#bb"/></g><g id="K"><use transform="matrix(0.05,0,0,0.05,0,0)" xlink:href="#bh"/><use transform="matrix(0.05,0,0,0.05,9,0)" xlink:href="#be"/><use transform="matrix(0.05,0,0,0.05,19,0)" xlink:href="#bt"/><use transform="matrix(0.05,0,0,0.05,22.95,0)" xlink:href="#bi"/></g><path d="M68-38c1 34 0 65-14 84H32c9-13 17-26 17-46H33v-38h35" id="bu"/><g id="L"><use transform="matrix(0.05,0,0,0.05,0,0)" xlink:href="#bj"/><use transform="matrix(0.05,0,0,0.05,10,0)" xlink:href="#be"/><use transform="matrix(0.05,0,0,0.05,20,0)" xlink:href="#be"/><use transform="matrix(0.05,0,0,0.05,30,0)" xlink:href="#bt"/><use transform="matrix(0.05,0,0,0.05,33.95,0)" xlink:href="#bc"/><use transform="matrix(0.05,0,0,0.05,43.95,0)" xlink:href="#ba"/><use transform="matrix(0.05,0,0,0.05,53.95,0)" xlink:href="#bk"/><use transform="matrix(0.05,0,0,0.05,63.95,0)" xlink:href="#bu"/></g><g id="M"><use transform="matrix(0.05,0,0,0.05,0,0)" xlink:href="#bk"/><use transform="matrix(0.05,0,0,0.05,10,0)" xlink:href="#be"/><use transform="matrix(0.05,0,0,0.05,20,0)" xlink:href="#bb"/></g><g id="N"><use transform="matrix(0.05,0,0,0.05,0,0)" xlink:href="#bk"/><use transform="matrix(0.05,0,0,0.05,10,0)" xlink:href="#bp"/><use transform="matrix(0.05,0,0,0.05,20,0)" xlink:href="#bt"/><use transform="matrix(0.05,0,0,0.05,23.95,0)" xlink:href="#bt"/><use transform="matrix(0.05,0,0,0.05,27.899999999999995,0)" xlink:href="#bu"/></g><path d="M101-234c-31-9-42 10-38 44h38v23H63V0H32v-167H5v-23h27c-7-52 17-82 69-68v24" id="bv"/><g id="O"><use transform="matrix(0.05,0,0,0.05,0,0)" xlink:href="#bi"/><use transform="matrix(0.05,0,0,0.05,10,0)" xlink:href="#bc"/><use transform="matrix(0.05,0,0,0.05,20,0)" xlink:href="#bv"/><use transform="matrix(0.05,0,0,0.05,25,0)" xlink:href="#ba"/><use transform="matrix(0.05,0,0,0.05,35,0)" xlink:href="#bp"/><use transform="matrix(0.05,0,0,0.05,45,0)" xlink:href="#bt"/><use transform="matrix(0.05,0,0,0.05,48.95,0)" xlink:href="#bb"/></g><g id="P"><use transform="matrix(0.05,0,0,0.05,0,0)" xlink:href="#bv"/><use transform="matrix(0.05,0,0,0.05,5,0)" xlink:href="#ba"/><use transform="matrix(0.05,0,0,0.05,15,0)" xlink:href="#bt"/><use transform="matrix(0.05,0,0,0.05,18.95,0)" xlink:href="#bh"/><use transform="matrix(0.05,0,0,0.05,27.950000000000003,0)" xlink:href="#bc"/></g><g id="Q"><use transform="matrix(0.05,0,0,0.05,0,0)" xlink:href="#bo"/><use transform="matrix(0.05,0,0,0.05,10,0)" xlink:href="#bf"/><use transform="matrix(0.05,0,0,0.05,15.949999999999998,0)" xlink:href="#be"/><use transform="matrix(0.05,0,0,0.05,25.950000000000003,0)" xlink:href="#bi"/><use transform="matrix(0.05,0,0,0.05,35.95,0)" xlink:href="#bp"/><use transform="matrix(0.05,0,0,0.05,45.95,0)" xlink:href="#aZ"/><use transform="matrix(0.05,0,0,0.05,54.95,0)" xlink:href="#bb"/><use transform="matrix(0.05,0,0,0.05,59.95,0)" xlink:href="#bq"/><use transform="matrix(0.05,0,0,0.05,69.95,0)" xlink:href="#bg"/><use transform="matrix(0.05,0,0,0.05,73.9,0)" xlink:href="#bk"/><use transform="matrix(0.05,0,0,0.05,83.9,0)" xlink:href="#bd"/><use transform="matrix(0.05,0,0,0.05,93.9,0)" xlink:href="#bf"/><use transform="matrix(0.05,0,0,0.05,99.85000000000001,0)" xlink:href="#bc"/><use transform="matrix(0.05,0,0,0.05,109.85000000000001,0)" xlink:href="#bi"/><use transform="matrix(0.05,0,0,0.05,119.85000000000001,0)" xlink:href="#bg"/><use transform="matrix(0.05,0,0,0.05,123.80000000000001,0)" xlink:href="#bc"/><use transform="matrix(0.05,0,0,0.05,133.8,0)" xlink:href="#bk"/><use transform="matrix(0.05,0,0,0.05,143.8,0)" xlink:href="#bb"/><use transform="matrix(0.05,0,0,0.05,148.8,0)" xlink:href="#bh"/></g><g id="R"><use transform="matrix(0.05,0,0,0.05,0,0)" xlink:href="#bo"/><use transform="matrix(0.05,0,0,0.05,10,0)" xlink:href="#bf"/><use transform="matrix(0.05,0,0,0.05,15.949999999999998,0)" xlink:href="#be"/><use transform="matrix(0.05,0,0,0.05,25.950000000000003,0)" xlink:href="#bi"/><use transform="matrix(0.05,0,0,0.05,35.95,0)" xlink:href="#bp"/><use transform="matrix(0.05,0,0,0.05,45.95,0)" xlink:href="#aZ"/><use transform="matrix(0.05,0,0,0.05,54.95,0)" xlink:href="#bb"/><use transform="matrix(0.05,0,0,0.05,59.95,0)" xlink:href="#bq"/><use transform="matrix(0.05,0,0,0.05,69.95,0)" xlink:href="#bg"/><use transform="matrix(0.05,0,0,0.05,73.9,0)" xlink:href="#bi"/></g><g id="S"><use transform="matrix(0.05,0,0,0.05,0,0)" xlink:href="#bg"/><use transform="matrix(0.05,0,0,0.05,3.95,0)" xlink:href="#bk"/><use transform="matrix(0.05,0,0,0.05,13.949999999999998,0)" xlink:href="#bd"/><use transform="matrix(0.05,0,0,0.05,23.95,0)" xlink:href="#bf"/><use transform="matrix(0.05,0,0,0.05,29.899999999999995,0)" xlink:href="#bc"/><use transform="matrix(0.05,0,0,0.05,39.9,0)" xlink:href="#bi"/><use transform="matrix(0.05,0,0,0.05,49.9,0)" xlink:href="#bg"/><use transform="matrix(0.05,0,0,0.05,53.85,0)" xlink:href="#bc"/><use transform="matrix(0.05,0,0,0.05,63.85,0)" xlink:href="#bk"/><use transform="matrix(0.05,0,0,0.05,73.85,0)" xlink:href="#bb"/><use transform="matrix(0.05,0,0,0.05,78.85,0)" xlink:href="#bq"/><use transform="matrix(0.05,0,0,0.05,88.85,0)" xlink:href="#bg"/><use transform="matrix(0.05,0,0,0.05,92.8,0)" xlink:href="#bi"/></g><g id="T"><use transform="matrix(0.05,0,0,0.05,0,0)" xlink:href="#bp"/><use transform="matrix(0.05,0,0,0.05,10,0)" xlink:href="#bh"/><use transform="matrix(0.05,0,0,0.05,19,0)" xlink:href="#bc"/><use transform="matrix(0.05,0,0,0.05,29,0)" xlink:href="#bf"/><use transform="matrix(0.05,0,0,0.05,34.95,0)" xlink:href="#bh"/></g><g id="U"><use transform="matrix(0.05,0,0,0.05,0,0)" xlink:href="#bc"/><use transform="matrix(0.05,0,0,0.05,10,0)" xlink:href="#bl"/><use transform="matrix(0.05,0,0,0.05,24.950000000000003,0)" xlink:href="#ba"/><use transform="matrix(0.05,0,0,0.05,34.95,0)" xlink:href="#bg"/><use transform="matrix(0.05,0,0,0.05,38.900000000000006,0)" xlink:href="#bt"/></g><path d="M206 0h-36l-40-164L89 0H53L-1-190h32L70-26l43-164h34l41 164 42-164h31" id="bw"/><g id="V"><use transform="matrix(0.05,0,0,0.05,0,0)" xlink:href="#bo"/><use transform="matrix(0.05,0,0,0.05,10,0)" xlink:href="#ba"/><use transform="matrix(0.05,0,0,0.05,20,0)" xlink:href="#bh"/><use transform="matrix(0.05,0,0,0.05,29,0)" xlink:href="#bh"/><use transform="matrix(0.05,0,0,0.05,38,0)" xlink:href="#bw"/><use transform="matrix(0.05,0,0,0.05,50.95,0)" xlink:href="#be"/><use transform="matrix(0.05,0,0,0.05,60.95,0)" xlink:href="#bf"/><use transform="matrix(0.05,0,0,0.05,66.9,0)" xlink:href="#bi"/></g><g id="W"><use transform="matrix(0.05,0,0,0.05,0,0)" xlink:href="#ba"/><use transform="matrix(0.05,0,0,0.05,10,0)" xlink:href="#bi"/><use transform="matrix(0.05,0,0,0.05,20,0)" xlink:href="#bl"/><use transform="matrix(0.05,0,0,0.05,34.95,0)" xlink:href="#bg"/><use transform="matrix(0.05,0,0,0.05,38.900000000000006,0)" xlink:href="#bk"/></g><g id="X"><use transform="matrix(0.05,0,0,0.05,0,0)" xlink:href="#be"/><use transform="matrix(0.05,0,0,0.05,10,0)" xlink:href="#bf"/><use transform="matrix(0.05,0,0,0.05,15.949999999999998,0)" xlink:href="#bi"/><use transform="matrix(0.05,0,0,0.05,25.950000000000003,0)" xlink:href="#bc"/><use transform="matrix(0.05,0,0,0.05,35.95,0)" xlink:href="#bf"/><use transform="matrix(0.05,0,0,0.05,41.900000000000006,0)" xlink:href="#bh"/></g><g id="Y"><use transform="matrix(0.05,0,0,0.05,0,0)" xlink:href="#bb"/><use transform="matrix(0.05,0,0,0.05,5,0)" xlink:href="#be"/><use transform="matrix(0.05,0,0,0.05,15,0)" xlink:href="#bb"/><use transform="matrix(0.05,0,0,0.05,20,0)" xlink:href="#ba"/><use transform="matrix(0.05,0,0,0.05,30,0)" xlink:href="#bt"/><use transform="matrix(0.05,0,0,0.05,33.95,0)" xlink:href="#bq"/><use transform="matrix(0.05,0,0,0.05,43.95,0)" xlink:href="#ba"/><use transform="matrix(0.05,0,0,0.05,53.95,0)" xlink:href="#bl"/><use transform="matrix(0.05,0,0,0.05,68.9,0)" xlink:href="#be"/><use transform="matrix(0.05,0,0,0.05,78.9,0)" xlink:href="#bp"/><use transform="matrix(0.05,0,0,0.05,88.9,0)" xlink:href="#bk"/><use transform="matrix(0.05,0,0,0.05,98.9,0)" xlink:href="#bb"/></g><g id="Z"><use transform="matrix(0.05,0,0,0.05,0,0)" xlink:href="#be"/><use transform="matrix(0.05,0,0,0.05,10,0)" xlink:href="#bf"/><use transform="matrix(0.05,0,0,0.05,15.949999999999998,0)" xlink:href="#bi"/><use transform="matrix(0.05,0,0,0.05,25.950000000000003,0)" xlink:href="#bc"/><use transform="matrix(0.05,0,0,0.05,35.95,0)" xlink:href="#bf"/><use transform="matrix(0.05,0,0,0.05,41.900000000000006,0)" xlink:href="#bq"/><use transform="matrix(0.05,0,0,0.05,51.900000000000006,0)" xlink:href="#bt"/><use transform="matrix(0.05,0,0,0.05,55.85,0)" xlink:href="#bg"/><use transform="matrix(0.05,0,0,0.05,59.80000000000001,0)" xlink:href="#bk"/><use transform="matrix(0.05,0,0,0.05,69.80000000000001,0)" xlink:href="#bc"/><use transform="matrix(0.05,0,0,0.05,79.80000000000001,0)" xlink:href="#bh"/></g><g id="aa"><use transform="matrix(0.05,0,0,0.05,0,0)" xlink:href="#be"/><use transform="matrix(0.05,0,0,0.05,10,0)" xlink:href="#bf"/><use transform="matrix(0.05,0,0,0.05,15.949999999999998,0)" xlink:href="#bi"/><use transform="matrix(0.05,0,0,0.05,25.950000000000003,0)" xlink:href="#bc"/><use transform="matrix(0.05,0,0,0.05,35.95,0)" xlink:href="#bf"/><use transform="matrix(0.05,0,0,0.05,41.900000000000006,0)" xlink:href="#bq"/><use transform="matrix(0.05,0,0,0.05,51.900000000000006,0)" xlink:href="#bg"/><use transform="matrix(0.05,0,0,0.05,55.85,0)" xlink:href="#bi"/></g><g id="ab"><use transform="matrix(0.05,0,0,0.05,0,0)" xlink:href="#ba"/><use transform="matrix(0.05,0,0,0.05,10,0)" xlink:href="#bi"/><use transform="matrix(0.05,0,0,0.05,20,0)" xlink:href="#bi"/><use transform="matrix(0.05,0,0,0.05,30,0)" xlink:href="#bf"/><use transform="matrix(0.05,0,0,0.05,35.95,0)" xlink:href="#bc"/><use transform="matrix(0.05,0,0,0.05,45.95,0)" xlink:href="#bh"/><use transform="matrix(0.05,0,0,0.05,54.95,0)" xlink:href="#bh"/><use transform="matrix(0.05,0,0,0.05,63.95,0)" xlink:href="#bc"/><use transform="matrix(0.05,0,0,0.05,73.95,0)" xlink:href="#bh"/></g><g id="ac"><use transform="matrix(0.05,0,0,0.05,0,0)" xlink:href="#bh"/><use transform="matrix(0.05,0,0,0.05,9,0)" xlink:href="#bb"/><use transform="matrix(0.05,0,0,0.05,14,0)" xlink:href="#bf"/><use transform="matrix(0.05,0,0,0.05,19.95,0)" xlink:href="#bc"/><use transform="matrix(0.05,0,0,0.05,29.950000000000003,0)" xlink:href="#bc"/><use transform="matrix(0.05,0,0,0.05,39.95,0)" xlink:href="#bb"/><use transform="matrix(0.05,0,0,0.05,44.95,0)" xlink:href="#bq"/><use transform="matrix(0.05,0,0,0.05,54.95,0)" xlink:href="#bk"/><use transform="matrix(0.05,0,0,0.05,64.95,0)" xlink:href="#bp"/><use transform="matrix(0.05,0,0,0.05,74.95,0)" xlink:href="#bl"/><use transform="matrix(0.05,0,0,0.05,89.9,0)" xlink:href="#bj"/><use transform="matrix(0.05,0,0,0.05,99.9,0)" xlink:href="#bc"/><use transform="matrix(0.05,0,0,0.05,109.9,0)" xlink:href="#bf"/></g><g id="ad"><use transform="matrix(0.05,0,0,0.05,0,0)" xlink:href="#bh"/><use transform="matrix(0.05,0,0,0.05,9,0)" xlink:href="#bp"/><use transform="matrix(0.05,0,0,0.05,19,0)" xlink:href="#bj"/><use transform="matrix(0.05,0,0,0.05,29,0)" xlink:href="#bp"/><use transform="matrix(0.05,0,0,0.05,39,0)" xlink:href="#bf"/><use transform="matrix(0.05,0,0,0.05,44.95,0)" xlink:href="#bj"/></g><g id="ae"><use transform="matrix(0.05,0,0,0.05,0,0)" xlink:href="#bo"/><use transform="matrix(0.05,0,0,0.05,10,0)" xlink:href="#be"/><use transform="matrix(0.05,0,0,0.05,20,0)" xlink:href="#bh"/><use transform="matrix(0.05,0,0,0.05,29,0)" xlink:href="#bb"/><use transform="matrix(0.05,0,0,0.05,34,0)" xlink:href="#aZ"/><use transform="matrix(0.05,0,0,0.05,43,0)" xlink:href="#be"/><use transform="matrix(0.05,0,0,0.05,53,0)" xlink:href="#bi"/><use transform="matrix(0.05,0,0,0.05,63,0)" xlink:href="#bc"/></g><g id="af"><use transform="matrix(0.05,0,0,0.05,0,0)" xlink:href="#bh"/><use transform="matrix(0.05,0,0,0.05,9,0)" xlink:href="#bb"/><use transform="matrix(0.05,0,0,0.05,14,0)" xlink:href="#ba"/><use transform="matrix(0.05,0,0,0.05,24,0)" xlink:href="#bb"/><use transform="matrix(0.05,0,0,0.05,29,0)" xlink:href="#bc"/></g><g id="ag"><use transform="matrix(0.05,0,0,0.05,0,0)" xlink:href="#aZ"/><use transform="matrix(0.05,0,0,0.05,9,0)" xlink:href="#be"/><use transform="matrix(0.05,0,0,0.05,19,0)" xlink:href="#bp"/><use transform="matrix(0.05,0,0,0.05,29,0)" xlink:href="#bk"/><use transform="matrix(0.05,0,0,0.05,39,0)" xlink:href="#bb"/><use transform="matrix(0.05,0,0,0.05,44,0)" xlink:href="#bf"/><use transform="matrix(0.05,0,0,0.05,49.95,0)" xlink:href="#br"/></g><g id="ah"><use transform="matrix(0.05,0,0,0.05,0,0)" xlink:href="#bp"/><use transform="matrix(0.05,0,0,0.05,10,0)" xlink:href="#bh"/><use transform="matrix(0.05,0,0,0.05,19,0)" xlink:href="#bc"/><use transform="matrix(0.05,0,0,0.05,29,0)" xlink:href="#bf"/><use transform="matrix(0.05,0,0,0.05,34.95,0)" xlink:href="#bq"/><use transform="matrix(0.05,0,0,0.05,44.95,0)" xlink:href="#bg"/><use transform="matrix(0.05,0,0,0.05,48.900000000000006,0)" xlink:href="#bk"/><use transform="matrix(0.05,0,0,0.05,58.900000000000006,0)" xlink:href="#bv"/><use transform="matrix(0.05,0,0,0.05,63.900000000000006,0)" xlink:href="#be"/><use transform="matrix(0.05,0,0,0.05,73.9,0)" xlink:href="#bh"/></g><g id="ai"><use transform="matrix(0.05,0,0,0.05,0,0)" xlink:href="#bv"/><use transform="matrix(0.05,0,0,0.05,5,0)" xlink:href="#bg"/><use transform="matrix(0.05,0,0,0.05,8.95,0)" xlink:href="#bf"/><use transform="matrix(0.05,0,0,0.05,14.899999999999999,0)" xlink:href="#bh"/><use transform="matrix(0.05,0,0,0.05,23.9,0)" xlink:href="#bb"/><use transform="matrix(0.05,0,0,0.05,28.899999999999995,0)" xlink:href="#bq"/><use transform="matrix(0.05,0,0,0.05,38.9,0)" xlink:href="#bk"/><use transform="matrix(0.05,0,0,0.05,48.9,0)" xlink:href="#ba"/><use transform="matrix(0.05,0,0,0.05,58.900000000000006,0)" xlink:href="#bl"/><use transform="matrix(0.05,0,0,0.05,73.85,0)" xlink:href="#bc"/></g><g id="aj"><use transform="matrix(0.05,0,0,0.05,0,0)" xlink:href="#bh"/><use transform="matrix(0.05,0,0,0.05,9,0)" xlink:href="#bp"/><use transform="matrix(0.05,0,0,0.05,19,0)" xlink:href="#bf"/><use transform="matrix(0.05,0,0,0.05,24.95,0)" xlink:href="#bk"/><use transform="matrix(0.05,0,0,0.05,34.95,0)" xlink:href="#ba"/><use transform="matrix(0.05,0,0,0.05,44.95,0)" xlink:href="#bl"/><use transform="matrix(0.05,0,0,0.05,59.900000000000006,0)" xlink:href="#bc"/></g><g id="ak"><use transform="matrix(0.05,0,0,0.05,0,0)" xlink:href="#bd"/><use transform="matrix(0.05,0,0,0.05,10,0)" xlink:href="#bc"/><use transform="matrix(0.05,0,0,0.05,20,0)" xlink:href="#bk"/><use transform="matrix(0.05,0,0,0.05,30,0)" xlink:href="#bi"/><use transform="matrix(0.05,0,0,0.05,40,0)" xlink:href="#bc"/><use transform="matrix(0.05,0,0,0.05,50,0)" xlink:href="#bf"/></g></defs></g></svg>